<svg xmlns="http://www.w3.org/2000/svg" width="1500" height="720" viewBox="0 0 1500 720">
<rect width="100%" height="100%" fill="#ffffff"/>
<text x="750.0" y="35.0" font-size="24" font-family="Arial, Microsoft YaHei, sans-serif" text-anchor="middle" fill="#20242a">Low-frequency filtered waveforms</text>
<text x="750.0" y="62.0" font-size="13" font-family="Arial, Microsoft YaHei, sans-serif" text-anchor="middle" fill="#5f6872">Gray: raw displacement, blue: 0.02-0.1 Hz filtered; each trace normalized independently</text>
<text x="373.0" y="88.0" font-size="15" font-family="Arial, Microsoft YaHei, sans-serif" text-anchor="middle" fill="#20242a">BHZ / Z</text>
<rect x="170.0" y="103.0" width="406.0" height="124" fill="#f7f8fa" stroke="#d8dde3"/>
<line x1="170.0" y1="165.0" x2="576.0" y2="165.0" stroke="#d8dde3"/>
<path d="M 170.0 164.7 L 172.0 164.6 L 174.1 164.5 L 176.1 164.4 L 178.1 164.4 L 180.2 164.4 L 182.2 164.2 L 184.2 164.0 L 186.2 163.9 L 188.3 163.9 L 190.3 164.1 L 192.3 164.2 L 194.4 164.0 L 196.4 163.8 L 198.4 163.6 L 200.4 144.3 L 202.5 162.5 L 204.5 160.5 L 206.5 158.6 L 208.6 166.5 L 210.6 174.2 L 212.6 180.5 L 214.7 171.5 L 216.7 182.4 L 218.7 186.1 L 220.8 150.4 L 222.8 158.8 L 224.8 155.5 L 226.8 171.9 L 228.9 162.9 L 230.9 188.0 L 232.9 177.1 L 235.0 158.5 L 237.0 151.3 L 239.0 177.2 L 241.1 174.6 L 243.1 117.0 L 245.1 174.3 L 247.1 152.0 L 249.2 169.0 L 251.2 154.2 L 253.2 172.8 L 255.3 152.1 L 257.3 176.0 L 259.3 163.0 L 261.4 167.2 L 263.4 160.8 L 265.4 168.9 L 267.4 170.7 L 269.5 166.3 L 271.5 170.1 L 273.5 154.1 L 275.6 174.3 L 277.6 169.9 L 279.6 167.8 L 281.6 160.2 L 283.7 149.2 L 285.7 161.2 L 287.7 175.4 L 289.8 165.5 L 291.8 165.3 L 293.8 166.2 L 295.9 153.5 L 297.9 171.4 L 299.9 168.7 L 302.0 162.0 L 304.0 157.5 L 306.0 169.3 L 308.0 168.4 L 310.1 166.8 L 312.1 157.5 L 314.1 172.4 L 316.2 164.0 L 318.2 161.8 L 320.2 169.8 L 322.2 166.3 L 324.3 162.7 L 326.3 165.1 L 328.3 165.3 L 330.4 168.0 L 332.4 161.5 L 334.4 165.5 L 336.5 162.4 L 338.5 165.6 L 340.5 166.2 L 342.5 166.1 L 344.6 160.9 L 346.6 166.1 L 348.6 162.7 L 350.7 164.4 L 352.7 168.5 L 354.7 166.3 L 356.8 162.1 L 358.8 170.0 L 360.8 167.6 L 362.9 160.5 L 364.9 162.9 L 366.9 169.2 L 368.9 164.6 L 371.0 163.0 L 373.0 171.3 L 375.0 164.2 L 377.1 161.4 L 379.1 167.2 L 381.1 168.7 L 383.1 158.6 L 385.2 166.2 L 387.2 165.5 L 389.2 165.0 L 391.3 164.1 L 393.3 163.9 L 395.3 165.3 L 397.4 161.4 L 399.4 169.3 L 401.4 159.5 L 403.4 163.1 L 405.5 164.7 L 407.5 167.7 L 409.5 166.3 L 411.6 164.4 L 413.6 166.2 L 415.6 166.8 L 417.7 164.1 L 419.7 163.6 L 421.7 167.0 L 423.8 163.7 L 425.8 161.9 L 427.8 166.1 L 429.8 166.5 L 431.9 166.3 L 433.9 165.7 L 435.9 164.8 L 438.0 166.1 L 440.0 164.0 L 442.0 164.0 L 444.1 165.8 L 446.1 163.6 L 448.1 168.7 L 450.1 164.3 L 452.2 165.9 L 454.2 164.6 L 456.2 163.6 L 458.3 164.9 L 460.3 168.0 L 462.3 165.1 L 464.3 165.3 L 466.4 166.2 L 468.4 163.0 L 470.4 163.0 L 472.5 168.1 L 474.5 163.4 L 476.5 165.5 L 478.6 162.7 L 480.6 165.1 L 482.6 166.9 L 484.7 166.0 L 486.7 164.7 L 488.7 165.1 L 490.7 164.8 L 492.8 165.5 L 494.8 165.7 L 496.8 166.1 L 498.9 164.9 L 500.9 165.1 L 502.9 165.8 L 504.9 165.6 L 507.0 164.4 L 509.0 164.4 L 511.0 166.7 L 513.1 166.0 L 515.1 164.7 L 517.1 162.5 L 519.2 165.8 L 521.2 165.9 L 523.2 166.3 L 525.2 166.1 L 527.3 164.6 L 529.3 164.4 L 531.3 165.6 L 533.4 165.4 L 535.4 165.7 L 537.4 164.8 L 539.5 164.6 L 541.5 165.2 L 543.5 165.9 L 545.5 164.9 L 547.6 165.2 L 549.6 164.2 L 551.6 165.6 L 553.7 163.5 L 555.7 166.4 L 557.7 165.5 L 559.8 165.1 L 561.8 164.9 L 563.8 165.7 L 565.8 165.3 L 567.9 163.8 L 569.9 166.3 L 571.9 166.7 L 574.0 164.4 L 576.0 164.1" fill="none" stroke="#a4acb5" stroke-width="0.8"/>
<path d="M 170.0 168.2 L 172.0 167.9 L 174.1 167.7 L 176.1 167.7 L 178.1 167.8 L 180.2 168.0 L 182.2 168.1 L 184.2 167.8 L 186.2 166.6 L 188.3 163.8 L 190.3 158.8 L 192.3 151.5 L 194.4 142.6 L 196.4 133.5 L 198.4 126.7 L 200.4 124.7 L 202.5 129.5 L 204.5 141.4 L 206.5 159.0 L 208.6 179.0 L 210.6 197.1 L 212.6 209.2 L 214.7 213.0 L 216.7 208.3 L 218.7 197.9 L 220.8 186.1 L 222.8 177.4 L 224.8 174.2 L 226.8 176.3 L 228.9 180.5 L 230.9 183.0 L 232.9 180.7 L 235.0 172.4 L 237.0 159.5 L 239.0 144.6 L 241.1 131.3 L 243.1 122.5 L 245.1 119.8 L 247.1 123.3 L 249.2 131.4 L 251.2 142.2 L 253.2 153.3 L 255.3 163.3 L 257.3 171.4 L 259.3 177.3 L 261.4 181.4 L 263.4 183.9 L 265.4 185.3 L 267.4 185.6 L 269.5 184.5 L 271.5 182.2 L 273.5 178.4 L 275.6 173.3 L 277.6 167.4 L 279.6 161.6 L 281.6 157.1 L 283.7 155.0 L 285.7 155.4 L 287.7 157.5 L 289.8 160.2 L 291.8 162.3 L 293.8 163.4 L 295.9 163.7 L 297.9 163.6 L 299.9 163.5 L 302.0 163.7 L 304.0 164.3 L 306.0 165.2 L 308.0 166.3 L 310.1 167.3 L 312.1 168.1 L 314.1 168.6 L 316.2 168.9 L 318.2 168.9 L 320.2 168.6 L 322.2 168.0 L 324.3 167.1 L 326.3 166.0 L 328.3 164.8 L 330.4 163.7 L 332.4 162.6 L 334.4 161.8 L 336.5 161.2 L 338.5 160.8 L 340.5 160.6 L 342.5 160.6 L 344.6 161.0 L 346.6 161.9 L 348.6 163.4 L 350.7 165.2 L 352.7 167.0 L 354.7 168.2 L 356.8 168.7 L 358.8 168.5 L 360.8 167.9 L 362.9 167.2 L 364.9 167.0 L 366.9 167.1 L 368.9 167.6 L 371.0 168.1 L 373.0 168.2 L 375.0 167.9 L 377.1 167.1 L 379.1 166.1 L 381.1 165.1 L 383.1 164.3 L 385.2 163.6 L 387.2 163.1 L 389.2 162.5 L 391.3 161.9 L 393.3 161.1 L 395.3 160.4 L 397.4 160.0 L 399.4 160.2 L 401.4 161.2 L 403.4 162.9 L 405.5 165.1 L 407.5 167.3 L 409.5 169.0 L 411.6 169.7 L 413.6 169.4 L 415.6 168.3 L 417.7 166.7 L 419.7 165.1 L 421.7 163.9 L 423.8 163.5 L 425.8 163.8 L 427.8 164.7 L 429.8 165.6 L 431.9 166.3 L 433.9 166.5 L 435.9 166.2 L 438.0 165.6 L 440.0 165.0 L 442.0 164.7 L 444.1 164.8 L 446.1 165.0 L 448.1 165.4 L 450.1 165.7 L 452.2 165.9 L 454.2 166.1 L 456.2 166.4 L 458.3 166.6 L 460.3 166.6 L 462.3 166.2 L 464.3 165.4 L 466.4 164.3 L 468.4 163.3 L 470.4 162.4 L 472.5 161.9 L 474.5 161.9 L 476.5 162.4 L 478.6 163.1 L 480.6 164.0 L 482.6 164.9 L 484.7 165.6 L 486.7 166.1 L 488.7 166.3 L 490.7 166.4 L 492.8 166.5 L 494.8 166.5 L 496.8 166.4 L 498.9 166.2 L 500.9 165.9 L 502.9 165.6 L 504.9 165.2 L 507.0 164.9 L 509.0 164.6 L 511.0 164.3 L 513.1 164.1 L 515.1 164.2 L 517.1 164.5 L 519.2 165.0 L 521.2 165.5 L 523.2 166.0 L 525.2 166.2 L 527.3 166.2 L 529.3 166.0 L 531.3 165.7 L 533.4 165.5 L 535.4 165.3 L 537.4 165.1 L 539.5 164.9 L 541.5 164.8 L 543.5 164.6 L 545.5 164.3 L 547.6 164.2 L 549.6 164.1 L 551.6 164.2 L 553.7 164.5 L 555.7 164.9 L 557.7 165.2 L 559.8 165.4 L 561.8 165.5 L 563.8 165.5 L 565.8 165.4 L 567.9 165.3 L 569.9 165.2 L 571.9 165.2 L 574.0 165.1 L 576.0 165.1" fill="none" stroke="#1f6f8b" stroke-width="1.3"/>
<text x="158.0" y="169.0" font-size="11" font-family="Arial, Microsoft YaHei, sans-serif" text-anchor="end" fill="#20242a">IW.PLID (78 km)</text>
<rect x="170.0" y="273.0" width="406.0" height="124" fill="#f7f8fa" stroke="#d8dde3"/>
<line x1="170.0" y1="335.0" x2="576.0" y2="335.0" stroke="#d8dde3"/>
<path d="M 170.0 335.0 L 172.0 335.2 L 174.1 335.2 L 176.1 335.4 L 178.1 335.5 L 180.2 334.9 L 182.2 334.6 L 184.2 334.8 L 186.2 335.1 L 188.3 335.3 L 190.3 335.5 L 192.3 335.6 L 194.4 334.9 L 196.4 334.1 L 198.4 334.2 L 200.4 335.3 L 202.5 336.3 L 204.5 336.0 L 206.5 334.9 L 208.6 334.2 L 210.6 334.4 L 212.6 335.5 L 214.7 335.9 L 216.7 335.4 L 218.7 334.4 L 220.8 333.7 L 222.8 334.3 L 224.8 335.6 L 226.8 336.1 L 228.9 335.6 L 230.9 334.8 L 232.9 334.5 L 235.0 334.6 L 237.0 334.7 L 239.0 334.6 L 241.1 334.5 L 243.1 334.9 L 245.1 335.3 L 247.1 335.5 L 249.2 335.3 L 251.2 334.5 L 253.2 334.2 L 255.3 334.4 L 257.3 334.7 L 259.3 334.9 L 261.4 335.2 L 263.4 335.2 L 265.4 334.9 L 267.4 334.0 L 269.5 333.4 L 271.5 334.3 L 273.5 336.7 L 275.6 337.8 L 277.6 337.3 L 279.6 335.3 L 281.6 333.9 L 283.7 333.1 L 285.7 334.8 L 287.7 339.6 L 289.8 340.7 L 291.8 337.9 L 293.8 330.6 L 295.9 331.0 L 297.9 337.5 L 299.9 337.9 L 302.0 331.1 L 304.0 335.8 L 306.0 329.6 L 308.0 335.0 L 310.1 335.5 L 312.1 336.4 L 314.1 331.5 L 316.2 334.1 L 318.2 337.8 L 320.2 336.6 L 322.2 336.6 L 324.3 335.8 L 326.3 333.8 L 328.3 333.0 L 330.4 336.6 L 332.4 334.2 L 334.4 337.0 L 336.5 337.5 L 338.5 339.5 L 340.5 335.4 L 342.5 337.5 L 344.6 335.6 L 346.6 335.0 L 348.6 337.9 L 350.7 331.7 L 352.7 336.8 L 354.7 334.6 L 356.8 334.1 L 358.8 328.0 L 360.8 334.2 L 362.9 331.1 L 364.9 332.5 L 366.9 328.2 L 368.9 336.2 L 371.0 321.2 L 373.0 340.2 L 375.0 329.7 L 377.1 335.3 L 379.1 345.5 L 381.1 323.9 L 383.1 347.8 L 385.2 344.9 L 387.2 330.4 L 389.2 321.4 L 391.3 340.9 L 393.3 334.3 L 395.3 333.6 L 397.4 340.5 L 399.4 356.9 L 401.4 337.7 L 403.4 360.4 L 405.5 314.2 L 407.5 365.9 L 409.5 339.9 L 411.6 337.6 L 413.6 315.7 L 415.6 341.2 L 417.7 306.6 L 419.7 322.2 L 421.7 322.9 L 423.8 320.7 L 425.8 325.8 L 427.8 318.0 L 429.8 347.9 L 431.9 333.4 L 433.9 373.0 L 435.9 383.0 L 438.0 351.9 L 440.0 300.6 L 442.0 296.4 L 444.1 296.2 L 446.1 329.2 L 448.1 365.8 L 450.1 373.7 L 452.2 321.7 L 454.2 330.7 L 456.2 327.6 L 458.3 322.7 L 460.3 356.4 L 462.3 328.7 L 464.3 329.0 L 466.4 324.2 L 468.4 339.8 L 470.4 343.3 L 472.5 348.1 L 474.5 343.9 L 476.5 328.7 L 478.6 336.9 L 480.6 317.3 L 482.6 332.8 L 484.7 343.9 L 486.7 334.1 L 488.7 333.6 L 490.7 348.9 L 492.8 336.1 L 494.8 314.2 L 496.8 338.9 L 498.9 326.0 L 500.9 340.5 L 502.9 343.4 L 504.9 340.2 L 507.0 328.3 L 509.0 331.4 L 511.0 328.3 L 513.1 336.8 L 515.1 344.5 L 517.1 338.9 L 519.2 331.2 L 521.2 328.3 L 523.2 331.7 L 525.2 350.8 L 527.3 336.2 L 529.3 329.2 L 531.3 335.7 L 533.4 338.1 L 535.4 336.2 L 537.4 337.2 L 539.5 334.3 L 541.5 324.2 L 543.5 333.4 L 545.5 335.4 L 547.6 342.7 L 549.6 337.3 L 551.6 330.1 L 553.7 319.0 L 555.7 347.9 L 557.7 342.6 L 559.8 332.3 L 561.8 339.2 L 563.8 332.6 L 565.8 323.8 L 567.9 345.0 L 569.9 335.5 L 571.9 329.6 L 574.0 334.0 L 576.0 334.3" fill="none" stroke="#a4acb5" stroke-width="0.8"/>
<path d="M 170.0 335.1 L 172.0 335.2 L 174.1 335.2 L 176.1 335.2 L 178.1 335.1 L 180.2 335.0 L 182.2 334.9 L 184.2 334.9 L 186.2 334.9 L 188.3 334.9 L 190.3 334.9 L 192.3 334.8 L 194.4 334.8 L 196.4 334.9 L 198.4 335.0 L 200.4 335.2 L 202.5 335.4 L 204.5 335.5 L 206.5 335.4 L 208.6 335.3 L 210.6 335.2 L 212.6 335.0 L 214.7 334.9 L 216.7 334.8 L 218.7 334.8 L 220.8 334.9 L 222.8 335.1 L 224.8 335.4 L 226.8 335.5 L 228.9 335.5 L 230.9 335.4 L 232.9 335.1 L 235.0 334.8 L 237.0 334.7 L 239.0 334.7 L 241.1 334.8 L 243.1 335.0 L 245.1 335.1 L 247.1 335.1 L 249.2 334.9 L 251.2 334.6 L 253.2 334.3 L 255.3 334.1 L 257.3 333.8 L 259.3 333.7 L 261.4 333.5 L 263.4 333.5 L 265.4 333.6 L 267.4 333.9 L 269.5 334.4 L 271.5 335.1 L 273.5 335.8 L 275.6 336.4 L 277.6 336.8 L 279.6 337.1 L 281.6 337.5 L 283.7 338.0 L 285.7 338.5 L 287.7 338.7 L 289.8 338.4 L 291.8 337.4 L 293.8 336.0 L 295.9 334.4 L 297.9 332.8 L 299.9 331.5 L 302.0 330.5 L 304.0 330.0 L 306.0 330.0 L 308.0 330.4 L 310.1 331.3 L 312.1 332.4 L 314.1 333.7 L 316.2 334.8 L 318.2 335.5 L 320.2 335.9 L 322.2 335.8 L 324.3 335.5 L 326.3 335.4 L 328.3 335.7 L 330.4 336.5 L 332.4 337.9 L 334.4 339.5 L 336.5 340.9 L 338.5 342.0 L 340.5 342.4 L 342.5 342.3 L 344.6 341.5 L 346.6 340.4 L 348.6 338.9 L 350.7 337.2 L 352.7 335.1 L 354.7 332.7 L 356.8 330.2 L 358.8 327.7 L 360.8 325.4 L 362.9 323.5 L 364.9 322.4 L 366.9 322.2 L 368.9 323.3 L 371.0 325.5 L 373.0 328.7 L 375.0 332.2 L 377.1 335.3 L 379.1 337.4 L 381.1 337.7 L 383.1 336.5 L 385.2 334.2 L 387.2 332.1 L 389.2 331.6 L 391.3 333.7 L 393.3 338.8 L 395.3 346.1 L 397.4 354.3 L 399.4 361.8 L 401.4 366.8 L 403.4 368.0 L 405.5 364.7 L 407.5 356.8 L 409.5 344.9 L 411.6 330.1 L 413.6 314.5 L 415.6 300.5 L 417.7 290.6 L 419.7 287.0 L 421.7 290.8 L 423.8 302.1 L 425.8 319.4 L 427.8 339.5 L 429.8 358.2 L 431.9 370.6 L 433.9 373.1 L 435.9 365.2 L 438.0 349.8 L 440.0 332.8 L 442.0 320.2 L 444.1 315.7 L 446.1 319.3 L 448.1 327.2 L 450.1 335.2 L 452.2 340.0 L 454.2 340.8 L 456.2 338.7 L 458.3 335.6 L 460.3 333.2 L 462.3 332.6 L 464.3 334.0 L 466.4 337.0 L 468.4 340.5 L 470.4 343.0 L 472.5 343.5 L 474.5 341.7 L 476.5 338.3 L 478.6 334.8 L 480.6 332.3 L 482.6 331.5 L 484.7 332.0 L 486.7 333.0 L 488.7 333.4 L 490.7 333.1 L 492.8 332.1 L 494.8 331.3 L 496.8 331.2 L 498.9 331.9 L 500.9 333.1 L 502.9 334.0 L 504.9 334.4 L 507.0 334.4 L 509.0 334.2 L 511.0 334.3 L 513.1 334.8 L 515.1 335.5 L 517.1 336.3 L 519.2 337.0 L 521.2 337.8 L 523.2 338.6 L 525.2 339.2 L 527.3 339.4 L 529.3 339.0 L 531.3 337.9 L 533.4 336.4 L 535.4 334.5 L 537.4 332.7 L 539.5 331.2 L 541.5 330.5 L 543.5 330.6 L 545.5 331.3 L 547.6 332.4 L 549.6 333.6 L 551.6 334.8 L 553.7 336.0 L 555.7 337.0 L 557.7 337.4 L 559.8 337.2 L 561.8 336.4 L 563.8 335.5 L 565.8 334.8 L 567.9 334.5 L 569.9 334.5 L 571.9 334.7 L 574.0 334.9 L 576.0 335.0" fill="none" stroke="#1f6f8b" stroke-width="1.3"/>
<text x="158.0" y="339.0" font-size="11" font-family="Arial, Microsoft YaHei, sans-serif" text-anchor="end" fill="#20242a">US.HAWA (348 km)</text>
<rect x="170.0" y="443.0" width="406.0" height="124" fill="#f7f8fa" stroke="#d8dde3"/>
<line x1="170.0" y1="505.0" x2="576.0" y2="505.0" stroke="#d8dde3"/>
<path d="M 170.0 503.9 L 172.0 504.5 L 174.1 505.1 L 176.1 505.7 L 178.1 506.2 L 180.2 506.2 L 182.2 505.6 L 184.2 504.5 L 186.2 503.6 L 188.3 503.7 L 190.3 504.0 L 192.3 504.9 L 194.4 506.1 L 196.4 506.5 L 198.4 506.1 L 200.4 505.2 L 202.5 504.7 L 204.5 504.2 L 206.5 504.0 L 208.6 504.9 L 210.6 505.6 L 212.6 505.7 L 214.7 505.5 L 216.7 505.0 L 218.7 504.6 L 220.8 504.6 L 222.8 504.5 L 224.8 504.6 L 226.8 505.1 L 228.9 505.5 L 230.9 505.3 L 232.9 504.9 L 235.0 505.2 L 237.0 505.2 L 239.0 504.9 L 241.1 504.5 L 243.1 504.5 L 245.1 504.6 L 247.1 505.0 L 249.2 505.7 L 251.2 505.6 L 253.2 504.8 L 255.3 504.4 L 257.3 504.6 L 259.3 505.3 L 261.4 505.6 L 263.4 505.0 L 265.4 504.2 L 267.4 504.5 L 269.5 505.3 L 271.5 506.1 L 273.5 505.8 L 275.6 504.8 L 277.6 503.9 L 279.6 503.6 L 281.6 504.6 L 283.7 506.2 L 285.7 507.0 L 287.7 506.0 L 289.8 504.1 L 291.8 503.1 L 293.8 503.9 L 295.9 505.0 L 297.9 505.4 L 299.9 505.7 L 302.0 506.2 L 304.0 506.3 L 306.0 505.6 L 308.0 504.6 L 310.1 504.1 L 312.1 504.0 L 314.1 504.6 L 316.2 505.2 L 318.2 505.5 L 320.2 505.7 L 322.2 505.3 L 324.3 505.0 L 326.3 504.1 L 328.3 503.5 L 330.4 503.2 L 332.4 503.9 L 334.4 504.8 L 336.5 505.0 L 338.5 504.6 L 340.5 504.8 L 342.5 506.2 L 344.6 504.9 L 346.6 506.3 L 348.6 505.0 L 350.7 500.7 L 352.7 511.9 L 354.7 503.9 L 356.8 507.0 L 358.8 506.8 L 360.8 503.7 L 362.9 507.1 L 364.9 502.8 L 366.9 503.3 L 368.9 504.3 L 371.0 505.8 L 373.0 501.4 L 375.0 502.4 L 377.1 503.6 L 379.1 503.5 L 381.1 509.5 L 383.1 504.2 L 385.2 503.4 L 387.2 507.8 L 389.2 503.4 L 391.3 506.3 L 393.3 502.3 L 395.3 504.2 L 397.4 506.0 L 399.4 507.7 L 401.4 508.2 L 403.4 503.8 L 405.5 502.7 L 407.5 500.2 L 409.5 505.4 L 411.6 505.2 L 413.6 506.9 L 415.6 505.5 L 417.7 505.8 L 419.7 502.2 L 421.7 504.2 L 423.8 504.1 L 425.8 509.0 L 427.8 501.6 L 429.8 503.5 L 431.9 503.5 L 433.9 505.9 L 435.9 504.6 L 438.0 507.0 L 440.0 507.1 L 442.0 504.7 L 444.1 504.8 L 446.1 504.0 L 448.1 505.8 L 450.1 502.4 L 452.2 508.2 L 454.2 499.5 L 456.2 506.8 L 458.3 506.4 L 460.3 508.4 L 462.3 506.3 L 464.3 498.8 L 466.4 499.6 L 468.4 509.0 L 470.4 507.2 L 472.5 507.8 L 474.5 499.0 L 476.5 507.1 L 478.6 502.8 L 480.6 502.9 L 482.6 500.1 L 484.7 504.7 L 486.7 538.9 L 488.7 480.3 L 490.7 488.5 L 492.8 518.2 L 494.8 527.1 L 496.8 481.1 L 498.9 512.1 L 500.9 498.9 L 502.9 496.8 L 504.9 507.9 L 507.0 527.4 L 509.0 480.2 L 511.0 492.4 L 513.1 513.7 L 515.1 502.6 L 517.1 499.0 L 519.2 494.4 L 521.2 524.0 L 523.2 487.0 L 525.2 553.0 L 527.3 501.7 L 529.3 488.4 L 531.3 520.0 L 533.4 506.0 L 535.4 501.0 L 537.4 491.3 L 539.5 517.5 L 541.5 514.8 L 543.5 484.2 L 545.5 499.8 L 547.6 507.3 L 549.6 497.9 L 551.6 505.3 L 553.7 504.6 L 555.7 519.5 L 557.7 503.5 L 559.8 495.9 L 561.8 519.3 L 563.8 526.9 L 565.8 513.8 L 567.9 502.0 L 569.9 513.5 L 571.9 499.3 L 574.0 493.6 L 576.0 495.4" fill="none" stroke="#a4acb5" stroke-width="0.8"/>
<path d="M 170.0 504.5 L 172.0 505.5 L 174.1 506.6 L 176.1 507.3 L 178.1 507.4 L 180.2 506.7 L 182.2 505.3 L 184.2 503.7 L 186.2 502.6 L 188.3 502.4 L 190.3 503.0 L 192.3 504.4 L 194.4 505.8 L 196.4 506.8 L 198.4 507.1 L 200.4 506.6 L 202.5 505.8 L 204.5 505.0 L 206.5 504.6 L 208.6 504.6 L 210.6 504.9 L 212.6 505.1 L 214.7 505.1 L 216.7 504.8 L 218.7 504.4 L 220.8 504.1 L 222.8 504.1 L 224.8 504.4 L 226.8 504.9 L 228.9 505.5 L 230.9 505.8 L 232.9 505.9 L 235.0 505.6 L 237.0 505.1 L 239.0 504.6 L 241.1 504.3 L 243.1 504.2 L 245.1 504.4 L 247.1 504.7 L 249.2 505.0 L 251.2 505.2 L 253.2 505.2 L 255.3 505.0 L 257.3 504.9 L 259.3 504.8 L 261.4 504.8 L 263.4 504.9 L 265.4 505.0 L 267.4 505.2 L 269.5 505.2 L 271.5 505.1 L 273.5 504.9 L 275.6 504.6 L 277.6 504.5 L 279.6 504.7 L 281.6 505.1 L 283.7 505.3 L 285.7 505.1 L 287.7 504.6 L 289.8 503.9 L 291.8 503.5 L 293.8 503.9 L 295.9 504.9 L 297.9 506.3 L 299.9 507.6 L 302.0 508.4 L 304.0 508.3 L 306.0 507.5 L 308.0 506.4 L 310.1 505.5 L 312.1 505.0 L 314.1 505.1 L 316.2 505.4 L 318.2 505.5 L 320.2 505.2 L 322.2 504.1 L 324.3 502.5 L 326.3 500.8 L 328.3 499.3 L 330.4 498.6 L 332.4 498.9 L 334.4 499.9 L 336.5 501.4 L 338.5 503.2 L 340.5 504.9 L 342.5 506.4 L 344.6 507.8 L 346.6 509.2 L 348.6 510.7 L 350.7 512.2 L 352.7 513.4 L 354.7 514.0 L 356.8 513.5 L 358.8 511.8 L 360.8 509.0 L 362.9 505.6 L 364.9 501.9 L 366.9 498.6 L 368.9 496.1 L 371.0 494.8 L 373.0 495.0 L 375.0 496.5 L 377.1 499.1 L 379.1 502.2 L 381.1 505.0 L 383.1 507.1 L 385.2 508.2 L 387.2 508.6 L 389.2 508.5 L 391.3 508.5 L 393.3 508.7 L 395.3 509.0 L 397.4 509.1 L 399.4 508.4 L 401.4 506.9 L 403.4 504.9 L 405.5 503.2 L 407.5 502.3 L 409.5 502.5 L 411.6 503.5 L 413.6 504.6 L 415.6 505.2 L 417.7 505.2 L 419.7 504.5 L 421.7 503.5 L 423.8 502.5 L 425.8 501.9 L 427.8 501.8 L 429.8 502.5 L 431.9 504.0 L 433.9 506.0 L 435.9 507.9 L 438.0 509.2 L 440.0 509.4 L 442.0 508.7 L 444.1 507.2 L 446.1 505.7 L 448.1 504.4 L 450.1 503.9 L 452.2 504.1 L 454.2 504.7 L 456.2 505.3 L 458.3 505.4 L 460.3 504.9 L 462.3 504.0 L 464.3 503.0 L 466.4 502.4 L 468.4 502.1 L 470.4 502.0 L 472.5 501.9 L 474.5 502.0 L 476.5 502.7 L 478.6 504.4 L 480.6 507.0 L 482.6 509.8 L 484.7 512.1 L 486.7 513.1 L 488.7 512.9 L 490.7 511.8 L 492.8 510.0 L 494.8 507.6 L 496.8 504.6 L 498.9 501.1 L 500.9 497.3 L 502.9 493.1 L 504.9 488.4 L 507.0 483.4 L 509.0 479.4 L 511.0 478.1 L 513.1 481.3 L 515.1 489.7 L 517.1 502.9 L 519.2 519.0 L 521.2 534.9 L 523.2 547.2 L 525.2 553.0 L 527.3 551.5 L 529.3 543.8 L 531.3 532.2 L 533.4 519.3 L 535.4 506.9 L 537.4 496.0 L 539.5 486.7 L 541.5 479.3 L 543.5 474.3 L 545.5 472.4 L 547.6 474.2 L 549.6 479.5 L 551.6 487.4 L 553.7 496.4 L 555.7 505.2 L 557.7 512.3 L 559.8 517.0 L 561.8 518.6 L 563.8 517.2 L 565.8 513.6 L 567.9 509.6 L 569.9 506.6 L 571.9 505.2 L 574.0 504.9 L 576.0 505.0" fill="none" stroke="#1f6f8b" stroke-width="1.3"/>
<text x="158.0" y="509.0" font-size="11" font-family="Arial, Microsoft YaHei, sans-serif" text-anchor="end" fill="#20242a">US.DUG (540 km)</text>
<text x="170.0" y="589.0" font-size="11" font-family="Arial, Microsoft YaHei, sans-serif" text-anchor="start" fill="#5f6872">0s</text>
<text x="576.0" y="589.0" font-size="11" font-family="Arial, Microsoft YaHei, sans-serif" text-anchor="end" fill="#5f6872">200s</text>
<text x="815.0" y="88.0" font-size="15" font-family="Arial, Microsoft YaHei, sans-serif" text-anchor="middle" fill="#20242a">BH1 / N</text>
<rect x="612.0" y="103.0" width="406.0" height="124" fill="#f7f8fa" stroke="#d8dde3"/>
<line x1="612.0" y1="165.0" x2="1018.0" y2="165.0" stroke="#d8dde3"/>
<path d="M 612.0 170.5 L 614.0 171.0 L 616.1 171.6 L 618.1 172.2 L 620.1 172.6 L 622.1 173.0 L 624.2 173.7 L 626.2 174.4 L 628.2 175.0 L 630.3 175.4 L 632.3 175.7 L 634.3 176.1 L 636.4 176.7 L 638.4 177.4 L 640.4 178.0 L 642.5 124.3 L 644.5 135.8 L 646.5 130.1 L 648.5 119.6 L 650.6 131.3 L 652.6 168.1 L 654.6 186.7 L 656.7 162.2 L 658.7 148.4 L 660.7 137.4 L 662.8 139.1 L 664.8 136.9 L 666.8 158.2 L 668.8 199.3 L 670.9 185.5 L 672.9 176.2 L 674.9 130.5 L 677.0 158.9 L 679.0 189.6 L 681.0 178.2 L 683.0 139.5 L 685.1 163.0 L 687.1 161.1 L 689.1 213.0 L 691.2 169.4 L 693.2 154.6 L 695.2 144.5 L 697.3 183.2 L 699.3 175.4 L 701.3 178.1 L 703.4 132.6 L 705.4 174.5 L 707.4 185.4 L 709.4 184.5 L 711.5 174.3 L 713.5 144.1 L 715.5 171.3 L 717.6 182.2 L 719.6 169.5 L 721.6 152.5 L 723.6 159.8 L 725.7 159.9 L 727.7 183.4 L 729.7 163.8 L 731.8 160.0 L 733.8 157.1 L 735.8 172.9 L 737.9 170.8 L 739.9 164.2 L 741.9 160.4 L 744.0 151.7 L 746.0 164.8 L 748.0 171.6 L 750.0 163.4 L 752.1 154.5 L 754.1 159.8 L 756.1 169.0 L 758.2 161.9 L 760.2 170.3 L 762.2 168.4 L 764.2 159.8 L 766.3 158.2 L 768.3 161.2 L 770.3 170.4 L 772.4 156.1 L 774.4 167.9 L 776.4 161.9 L 778.5 171.5 L 780.5 162.7 L 782.5 162.8 L 784.5 171.2 L 786.6 163.4 L 788.6 156.1 L 790.6 167.3 L 792.7 171.4 L 794.7 162.8 L 796.7 167.3 L 798.8 167.4 L 800.8 163.0 L 802.8 163.9 L 804.9 166.3 L 806.9 170.5 L 808.9 164.7 L 810.9 162.6 L 813.0 171.9 L 815.0 165.7 L 817.0 162.1 L 819.1 163.9 L 821.1 167.6 L 823.1 161.6 L 825.1 164.2 L 827.2 169.1 L 829.2 162.7 L 831.2 161.5 L 833.3 166.2 L 835.3 166.6 L 837.3 170.8 L 839.4 168.9 L 841.4 163.6 L 843.4 166.3 L 845.5 164.0 L 847.5 166.5 L 849.5 162.9 L 851.5 162.8 L 853.6 164.8 L 855.6 166.8 L 857.6 162.2 L 859.7 171.0 L 861.7 172.2 L 863.7 166.1 L 865.8 160.8 L 867.8 166.1 L 869.8 166.2 L 871.8 166.3 L 873.9 164.5 L 875.9 165.8 L 877.9 163.7 L 880.0 161.0 L 882.0 163.2 L 884.0 169.0 L 886.0 166.4 L 888.1 164.3 L 890.1 167.5 L 892.1 167.7 L 894.2 165.6 L 896.2 162.4 L 898.2 160.2 L 900.3 165.5 L 902.3 166.4 L 904.3 168.1 L 906.3 165.9 L 908.4 162.7 L 910.4 158.3 L 912.4 165.8 L 914.5 169.1 L 916.5 169.3 L 918.5 165.0 L 920.6 165.0 L 922.6 164.9 L 924.6 167.1 L 926.7 168.3 L 928.7 162.3 L 930.7 163.1 L 932.7 162.1 L 934.8 165.7 L 936.8 166.4 L 938.8 165.9 L 940.9 166.0 L 942.9 164.9 L 944.9 161.0 L 947.0 166.2 L 949.0 168.7 L 951.0 164.6 L 953.0 162.7 L 955.1 164.6 L 957.1 166.6 L 959.1 168.1 L 961.2 165.0 L 963.2 163.0 L 965.2 167.1 L 967.2 166.5 L 969.3 164.9 L 971.3 164.1 L 973.3 164.5 L 975.4 163.4 L 977.4 166.3 L 979.4 166.5 L 981.5 163.8 L 983.5 165.4 L 985.5 165.9 L 987.5 164.2 L 989.6 164.4 L 991.6 165.6 L 993.6 164.4 L 995.7 165.6 L 997.7 164.7 L 999.7 164.5 L 1001.8 165.4 L 1003.8 167.4 L 1005.8 167.0 L 1007.8 166.1 L 1009.9 165.7 L 1011.9 165.0 L 1013.9 163.8 L 1016.0 165.1 L 1018.0 166.3" fill="none" stroke="#a4acb5" stroke-width="0.8"/>
<path d="M 612.0 164.3 L 614.0 167.7 L 616.1 171.4 L 618.1 175.2 L 620.1 179.4 L 622.1 183.9 L 624.2 188.9 L 626.2 194.0 L 628.2 198.5 L 630.3 201.2 L 632.3 200.8 L 634.3 195.7 L 636.4 185.3 L 638.4 170.1 L 640.4 152.4 L 642.5 135.3 L 644.5 122.7 L 646.5 117.0 L 648.5 118.7 L 650.6 126.1 L 652.6 135.6 L 654.6 144.0 L 656.7 149.3 L 658.7 152.1 L 660.7 154.1 L 662.8 157.6 L 664.8 163.3 L 666.8 170.5 L 668.8 177.1 L 670.9 181.3 L 672.9 182.1 L 674.9 180.3 L 677.0 177.2 L 679.0 174.1 L 681.0 172.0 L 683.0 171.2 L 685.1 171.4 L 687.1 171.7 L 689.1 171.2 L 691.2 169.5 L 693.2 166.9 L 695.2 164.3 L 697.3 162.4 L 699.3 161.9 L 701.3 162.9 L 703.4 165.0 L 705.4 167.7 L 707.4 170.0 L 709.4 171.1 L 711.5 170.6 L 713.5 168.7 L 715.5 166.0 L 717.6 163.2 L 719.6 160.8 L 721.6 159.3 L 723.6 159.0 L 725.7 159.7 L 727.7 161.0 L 729.7 162.5 L 731.8 163.8 L 733.8 164.4 L 735.8 164.5 L 737.9 163.8 L 739.9 162.7 L 741.9 161.5 L 744.0 160.6 L 746.0 160.2 L 748.0 160.5 L 750.0 161.4 L 752.1 162.7 L 754.1 164.2 L 756.1 165.6 L 758.2 166.5 L 760.2 166.7 L 762.2 166.2 L 764.2 165.2 L 766.3 164.1 L 768.3 163.5 L 770.3 163.5 L 772.4 164.0 L 774.4 164.9 L 776.4 165.8 L 778.5 166.3 L 780.5 166.5 L 782.5 166.2 L 784.5 165.7 L 786.6 165.3 L 788.6 165.0 L 790.6 165.1 L 792.7 165.3 L 794.7 165.6 L 796.7 165.8 L 798.8 165.9 L 800.8 166.0 L 802.8 166.1 L 804.9 166.3 L 806.9 166.5 L 808.9 166.4 L 810.9 166.1 L 813.0 165.4 L 815.0 164.4 L 817.0 163.3 L 819.1 162.3 L 821.1 161.6 L 823.1 161.2 L 825.1 161.2 L 827.2 161.8 L 829.2 162.7 L 831.2 164.0 L 833.3 165.4 L 835.3 166.6 L 837.3 167.2 L 839.4 167.0 L 841.4 166.2 L 843.4 164.9 L 845.5 163.4 L 847.5 162.4 L 849.5 161.9 L 851.5 162.3 L 853.6 163.3 L 855.6 164.8 L 857.6 166.4 L 859.7 167.5 L 861.7 168.0 L 863.7 167.8 L 865.8 167.0 L 867.8 165.9 L 869.8 164.7 L 871.8 163.6 L 873.9 162.7 L 875.9 162.2 L 877.9 162.2 L 880.0 162.8 L 882.0 163.7 L 884.0 164.8 L 886.0 165.7 L 888.1 166.2 L 890.1 166.2 L 892.1 165.7 L 894.2 164.9 L 896.2 164.0 L 898.2 163.4 L 900.3 163.1 L 902.3 162.9 L 904.3 163.0 L 906.3 163.1 L 908.4 163.5 L 910.4 164.2 L 912.4 165.2 L 914.5 166.2 L 916.5 167.0 L 918.5 167.4 L 920.6 167.2 L 922.6 166.6 L 924.6 165.6 L 926.7 164.6 L 928.7 163.7 L 930.7 163.1 L 932.7 162.9 L 934.8 163.0 L 936.8 163.4 L 938.8 163.8 L 940.9 164.1 L 942.9 164.2 L 944.9 164.3 L 947.0 164.4 L 949.0 164.5 L 951.0 164.7 L 953.0 165.0 L 955.1 165.3 L 957.1 165.6 L 959.1 165.8 L 961.2 165.9 L 963.2 165.8 L 965.2 165.5 L 967.2 165.1 L 969.3 164.7 L 971.3 164.4 L 973.3 164.2 L 975.4 164.3 L 977.4 164.4 L 979.4 164.5 L 981.5 164.6 L 983.5 164.5 L 985.5 164.4 L 987.5 164.1 L 989.6 163.9 L 991.6 163.8 L 993.6 163.8 L 995.7 164.0 L 997.7 164.3 L 999.7 164.6 L 1001.8 164.9 L 1003.8 165.1 L 1005.8 165.2 L 1007.8 165.1 L 1009.9 164.9 L 1011.9 164.7 L 1013.9 164.7 L 1016.0 164.6 L 1018.0 164.6" fill="none" stroke="#1f6f8b" stroke-width="1.3"/>
<rect x="612.0" y="273.0" width="406.0" height="124" fill="#f7f8fa" stroke="#d8dde3"/>
<line x1="612.0" y1="335.0" x2="1018.0" y2="335.0" stroke="#d8dde3"/>
<path d="M 612.0 335.3 L 614.0 335.1 L 616.1 335.3 L 618.1 335.7 L 620.1 335.8 L 622.1 335.5 L 624.2 335.5 L 626.2 335.6 L 628.2 335.5 L 630.3 335.4 L 632.3 335.2 L 634.3 335.3 L 636.4 335.5 L 638.4 335.6 L 640.4 335.5 L 642.5 335.3 L 644.5 335.1 L 646.5 335.2 L 648.5 335.6 L 650.6 335.5 L 652.6 335.0 L 654.6 334.6 L 656.7 334.7 L 658.7 335.1 L 660.7 335.2 L 662.8 334.8 L 664.8 334.6 L 666.8 334.9 L 668.8 335.2 L 670.9 335.1 L 672.9 334.4 L 674.9 334.0 L 677.0 334.4 L 679.0 335.1 L 681.0 335.4 L 683.0 334.9 L 685.1 334.3 L 687.1 334.2 L 689.1 334.4 L 691.2 334.4 L 693.2 334.5 L 695.2 334.6 L 697.3 334.4 L 699.3 334.4 L 701.3 334.4 L 703.4 334.4 L 705.4 334.4 L 707.4 334.5 L 709.4 334.8 L 711.5 334.4 L 713.5 334.1 L 715.5 334.3 L 717.6 334.8 L 719.6 335.4 L 721.6 335.6 L 723.6 335.6 L 725.7 335.4 L 727.7 335.0 L 729.7 335.8 L 731.8 336.2 L 733.8 336.9 L 735.8 334.7 L 737.9 335.4 L 739.9 336.8 L 741.9 336.4 L 744.0 336.0 L 746.0 336.4 L 748.0 335.6 L 750.0 335.0 L 752.1 335.4 L 754.1 336.2 L 756.1 335.5 L 758.2 336.7 L 760.2 337.6 L 762.2 336.3 L 764.2 335.6 L 766.3 336.8 L 768.3 335.1 L 770.3 335.8 L 772.4 336.6 L 774.4 335.3 L 776.4 336.1 L 778.5 335.3 L 780.5 336.9 L 782.5 335.8 L 784.5 336.8 L 786.6 336.0 L 788.6 334.3 L 790.6 334.5 L 792.7 333.3 L 794.7 333.4 L 796.7 331.1 L 798.8 330.8 L 800.8 331.6 L 802.8 329.6 L 804.9 329.8 L 806.9 327.3 L 808.9 330.5 L 810.9 326.5 L 813.0 324.3 L 815.0 316.2 L 817.0 321.4 L 819.1 331.6 L 821.1 341.2 L 823.1 350.1 L 825.1 333.2 L 827.2 346.2 L 829.2 343.5 L 831.2 374.9 L 833.3 349.2 L 835.3 363.8 L 837.3 365.6 L 839.4 325.8 L 841.4 316.1 L 843.4 316.6 L 845.5 299.4 L 847.5 295.3 L 849.5 298.4 L 851.5 329.8 L 853.6 366.2 L 855.6 383.0 L 857.6 360.7 L 859.7 344.1 L 861.7 315.8 L 863.7 295.0 L 865.8 305.7 L 867.8 355.9 L 869.8 368.6 L 871.8 351.9 L 873.9 323.8 L 875.9 324.1 L 877.9 327.7 L 880.0 337.9 L 882.0 351.3 L 884.0 335.8 L 886.0 318.7 L 888.1 329.3 L 890.1 341.6 L 892.1 339.5 L 894.2 343.5 L 896.2 326.5 L 898.2 328.8 L 900.3 327.9 L 902.3 326.4 L 904.3 336.8 L 906.3 350.5 L 908.4 337.8 L 910.4 328.3 L 912.4 330.2 L 914.5 337.6 L 916.5 341.7 L 918.5 328.4 L 920.6 332.1 L 922.6 336.1 L 924.6 339.8 L 926.7 334.5 L 928.7 339.5 L 930.7 334.9 L 932.7 332.5 L 934.8 331.4 L 936.8 335.3 L 938.8 340.7 L 940.9 334.3 L 942.9 333.6 L 944.9 331.6 L 947.0 337.6 L 949.0 333.9 L 951.0 334.9 L 953.0 337.7 L 955.1 337.4 L 957.1 336.3 L 959.1 331.4 L 961.2 332.8 L 963.2 336.7 L 965.2 340.8 L 967.2 336.3 L 969.3 332.9 L 971.3 330.9 L 973.3 334.3 L 975.4 336.1 L 977.4 335.7 L 979.4 336.8 L 981.5 334.8 L 983.5 331.7 L 985.5 339.9 L 987.5 335.7 L 989.6 334.1 L 991.6 333.4 L 993.6 333.4 L 995.7 336.5 L 997.7 334.7 L 999.7 336.8 L 1001.8 336.6 L 1003.8 337.0 L 1005.8 331.1 L 1007.8 334.5 L 1009.9 335.8 L 1011.9 335.2 L 1013.9 335.9 L 1016.0 333.8 L 1018.0 335.5" fill="none" stroke="#a4acb5" stroke-width="0.8"/>
<path d="M 612.0 334.8 L 614.0 335.0 L 616.1 335.2 L 618.1 335.3 L 620.1 335.4 L 622.1 335.4 L 624.2 335.4 L 626.2 335.3 L 628.2 335.2 L 630.3 335.1 L 632.3 335.1 L 634.3 335.1 L 636.4 335.1 L 638.4 335.2 L 640.4 335.2 L 642.5 335.2 L 644.5 335.2 L 646.5 335.1 L 648.5 335.1 L 650.6 335.0 L 652.6 334.9 L 654.6 334.8 L 656.7 334.8 L 658.7 334.8 L 660.7 334.9 L 662.8 334.9 L 664.8 335.0 L 666.8 335.1 L 668.8 335.1 L 670.9 335.1 L 672.9 335.1 L 674.9 335.2 L 677.0 335.2 L 679.0 335.3 L 681.0 335.3 L 683.0 335.3 L 685.1 335.3 L 687.1 335.2 L 689.1 335.1 L 691.2 335.0 L 693.2 334.9 L 695.2 334.9 L 697.3 334.8 L 699.3 334.7 L 701.3 334.6 L 703.4 334.5 L 705.4 334.4 L 707.4 334.3 L 709.4 334.2 L 711.5 334.1 L 713.5 334.1 L 715.5 334.2 L 717.6 334.4 L 719.6 334.7 L 721.6 334.9 L 723.6 335.1 L 725.7 335.2 L 727.7 335.3 L 729.7 335.3 L 731.8 335.3 L 733.8 335.3 L 735.8 335.2 L 737.9 335.1 L 739.9 335.0 L 741.9 334.8 L 744.0 334.6 L 746.0 334.3 L 748.0 334.2 L 750.0 334.1 L 752.1 334.2 L 754.1 334.5 L 756.1 334.9 L 758.2 335.3 L 760.2 335.6 L 762.2 335.8 L 764.2 336.0 L 766.3 336.0 L 768.3 336.2 L 770.3 336.4 L 772.4 336.8 L 774.4 337.4 L 776.4 338.1 L 778.5 338.8 L 780.5 339.4 L 782.5 339.8 L 784.5 339.8 L 786.6 339.5 L 788.6 338.8 L 790.6 337.9 L 792.7 336.7 L 794.7 335.3 L 796.7 333.7 L 798.8 331.9 L 800.8 329.6 L 802.8 326.8 L 804.9 323.4 L 806.9 319.7 L 808.9 316.0 L 810.9 313.2 L 813.0 312.2 L 815.0 313.9 L 817.0 318.7 L 819.1 326.6 L 821.1 337.0 L 823.1 349.0 L 825.1 361.2 L 827.2 372.2 L 829.2 380.0 L 831.2 382.5 L 833.3 378.3 L 835.3 366.6 L 837.3 348.6 L 839.4 327.4 L 841.4 307.1 L 843.4 292.5 L 845.5 287.0 L 847.5 291.8 L 849.5 305.2 L 851.5 322.9 L 853.6 339.4 L 855.6 350.1 L 857.6 353.0 L 859.7 349.3 L 861.7 342.5 L 863.7 336.6 L 865.8 333.8 L 867.8 334.3 L 869.8 336.6 L 871.8 338.7 L 873.9 339.5 L 875.9 339.1 L 877.9 337.9 L 880.0 336.6 L 882.0 335.5 L 884.0 334.7 L 886.0 334.3 L 888.1 334.1 L 890.1 333.9 L 892.1 333.3 L 894.2 332.4 L 896.2 331.4 L 898.2 331.0 L 900.3 331.3 L 902.3 332.6 L 904.3 334.2 L 906.3 335.7 L 908.4 336.6 L 910.4 336.8 L 912.4 336.4 L 914.5 335.8 L 916.5 335.4 L 918.5 335.3 L 920.6 335.5 L 922.6 335.9 L 924.6 336.3 L 926.7 336.5 L 928.7 336.2 L 930.7 335.8 L 932.7 335.2 L 934.8 334.7 L 936.8 334.3 L 938.8 334.1 L 940.9 334.0 L 942.9 334.0 L 944.9 334.2 L 947.0 334.5 L 949.0 334.9 L 951.0 335.3 L 953.0 335.6 L 955.1 335.7 L 957.1 335.8 L 959.1 335.7 L 961.2 335.6 L 963.2 335.4 L 965.2 335.1 L 967.2 334.7 L 969.3 334.2 L 971.3 334.0 L 973.3 333.9 L 975.4 334.2 L 977.4 334.6 L 979.4 335.0 L 981.5 335.3 L 983.5 335.4 L 985.5 335.3 L 987.5 335.1 L 989.6 334.9 L 991.6 334.7 L 993.6 334.8 L 995.7 335.0 L 997.7 335.3 L 999.7 335.4 L 1001.8 335.4 L 1003.8 335.2 L 1005.8 335.0 L 1007.8 334.9 L 1009.9 334.8 L 1011.9 334.9 L 1013.9 334.9 L 1016.0 335.0 L 1018.0 335.0" fill="none" stroke="#1f6f8b" stroke-width="1.3"/>
<rect x="612.0" y="443.0" width="406.0" height="124" fill="#f7f8fa" stroke="#d8dde3"/>
<line x1="612.0" y1="505.0" x2="1018.0" y2="505.0" stroke="#d8dde3"/>
<path d="M 612.0 504.7 L 614.0 504.9 L 616.1 505.1 L 618.1 505.3 L 620.1 505.4 L 622.1 505.3 L 624.2 504.8 L 626.2 504.5 L 628.2 504.6 L 630.3 505.1 L 632.3 505.5 L 634.3 505.6 L 636.4 505.6 L 638.4 505.5 L 640.4 505.2 L 642.5 504.9 L 644.5 504.8 L 646.5 505.0 L 648.5 505.2 L 650.6 505.2 L 652.6 505.3 L 654.6 505.5 L 656.7 505.3 L 658.7 504.8 L 660.7 504.7 L 662.8 505.0 L 664.8 505.1 L 666.8 504.8 L 668.8 504.7 L 670.9 504.7 L 672.9 504.8 L 674.9 504.9 L 677.0 505.0 L 679.0 505.1 L 681.0 504.7 L 683.0 504.2 L 685.1 504.2 L 687.1 504.8 L 689.1 505.4 L 691.2 505.5 L 693.2 504.9 L 695.2 504.3 L 697.3 504.2 L 699.3 504.6 L 701.3 505.3 L 703.4 505.7 L 705.4 505.7 L 707.4 505.5 L 709.4 505.1 L 711.5 504.9 L 713.5 505.0 L 715.5 505.1 L 717.6 505.3 L 719.6 505.3 L 721.6 505.1 L 723.6 505.3 L 725.7 505.6 L 727.7 505.6 L 729.7 505.2 L 731.8 504.8 L 733.8 504.5 L 735.8 504.7 L 737.9 505.5 L 739.9 506.2 L 741.9 505.9 L 744.0 504.9 L 746.0 504.2 L 748.0 504.1 L 750.0 504.6 L 752.1 505.1 L 754.1 505.4 L 756.1 505.3 L 758.2 505.0 L 760.2 504.8 L 762.2 504.8 L 764.2 504.8 L 766.3 505.1 L 768.3 505.2 L 770.3 505.4 L 772.4 505.5 L 774.4 505.7 L 776.4 505.6 L 778.5 505.7 L 780.5 506.0 L 782.5 505.7 L 784.5 505.7 L 786.6 505.8 L 788.6 505.2 L 790.6 504.5 L 792.7 505.2 L 794.7 505.0 L 796.7 505.7 L 798.8 505.0 L 800.8 507.7 L 802.8 503.1 L 804.9 503.0 L 806.9 505.8 L 808.9 502.5 L 810.9 505.8 L 813.0 504.6 L 815.0 503.7 L 817.0 505.9 L 819.1 505.0 L 821.1 507.3 L 823.1 505.2 L 825.1 506.1 L 827.2 507.3 L 829.2 503.4 L 831.2 503.8 L 833.3 506.0 L 835.3 504.9 L 837.3 506.9 L 839.4 506.2 L 841.4 502.3 L 843.4 504.5 L 845.5 505.2 L 847.5 505.6 L 849.5 504.3 L 851.5 505.7 L 853.6 504.4 L 855.6 504.0 L 857.6 505.1 L 859.7 503.8 L 861.7 503.4 L 863.7 505.3 L 865.8 503.3 L 867.8 502.0 L 869.8 502.7 L 871.8 505.0 L 873.9 504.4 L 875.9 503.9 L 877.9 504.1 L 880.0 503.5 L 882.0 505.5 L 884.0 506.7 L 886.0 504.7 L 888.1 503.3 L 890.1 505.9 L 892.1 506.9 L 894.2 507.3 L 896.2 509.0 L 898.2 511.8 L 900.3 510.3 L 902.3 516.4 L 904.3 510.9 L 906.3 511.3 L 908.4 510.0 L 910.4 514.6 L 912.4 512.9 L 914.5 510.1 L 916.5 508.6 L 918.5 496.0 L 920.6 513.8 L 922.6 497.9 L 924.6 485.4 L 926.7 474.8 L 928.7 501.1 L 930.7 492.4 L 932.7 484.9 L 934.8 477.6 L 936.8 504.5 L 938.8 506.7 L 940.9 509.0 L 942.9 540.7 L 944.9 531.1 L 947.0 523.5 L 949.0 534.1 L 951.0 523.7 L 953.0 503.8 L 955.1 457.0 L 957.1 477.5 L 959.1 486.4 L 961.2 470.1 L 963.2 507.9 L 965.2 525.4 L 967.2 531.9 L 969.3 524.8 L 971.3 521.5 L 973.3 503.4 L 975.4 467.7 L 977.4 503.7 L 979.4 496.7 L 981.5 501.3 L 983.5 534.7 L 985.5 527.9 L 987.5 490.9 L 989.6 504.8 L 991.6 469.9 L 993.6 471.5 L 995.7 514.6 L 997.7 538.1 L 999.7 520.1 L 1001.8 519.4 L 1003.8 491.1 L 1005.8 474.7 L 1007.8 496.5 L 1009.9 504.3 L 1011.9 521.3 L 1013.9 513.3 L 1016.0 512.0 L 1018.0 495.8" fill="none" stroke="#a4acb5" stroke-width="0.8"/>
<path d="M 612.0 504.9 L 614.0 504.9 L 616.1 504.9 L 618.1 504.9 L 620.1 504.9 L 622.1 504.8 L 624.2 504.8 L 626.2 504.8 L 628.2 504.9 L 630.3 505.0 L 632.3 505.2 L 634.3 505.4 L 636.4 505.4 L 638.4 505.4 L 640.4 505.3 L 642.5 505.2 L 644.5 505.1 L 646.5 505.1 L 648.5 505.2 L 650.6 505.2 L 652.6 505.3 L 654.6 505.3 L 656.7 505.3 L 658.7 505.2 L 660.7 505.1 L 662.8 505.0 L 664.8 504.9 L 666.8 504.8 L 668.8 504.8 L 670.9 504.8 L 672.9 504.8 L 674.9 504.8 L 677.0 504.7 L 679.0 504.7 L 681.0 504.6 L 683.0 504.6 L 685.1 504.6 L 687.1 504.6 L 689.1 504.7 L 691.2 504.7 L 693.2 504.7 L 695.2 504.7 L 697.3 504.8 L 699.3 505.0 L 701.3 505.2 L 703.4 505.4 L 705.4 505.5 L 707.4 505.5 L 709.4 505.5 L 711.5 505.4 L 713.5 505.3 L 715.5 505.2 L 717.6 505.2 L 719.6 505.3 L 721.6 505.3 L 723.6 505.3 L 725.7 505.3 L 727.7 505.2 L 729.7 505.1 L 731.8 505.1 L 733.8 505.1 L 735.8 505.2 L 737.9 505.2 L 739.9 505.1 L 741.9 505.0 L 744.0 504.8 L 746.0 504.5 L 748.0 504.4 L 750.0 504.3 L 752.1 504.3 L 754.1 504.4 L 756.1 504.4 L 758.2 504.4 L 760.2 504.5 L 762.2 504.5 L 764.2 504.6 L 766.3 504.7 L 768.3 505.0 L 770.3 505.2 L 772.4 505.5 L 774.4 505.7 L 776.4 505.9 L 778.5 506.0 L 780.5 506.0 L 782.5 505.9 L 784.5 505.7 L 786.6 505.5 L 788.6 505.3 L 790.6 505.2 L 792.7 505.1 L 794.7 505.0 L 796.7 504.9 L 798.8 504.6 L 800.8 504.2 L 802.8 503.8 L 804.9 503.4 L 806.9 503.1 L 808.9 503.2 L 810.9 503.4 L 813.0 504.0 L 815.0 504.7 L 817.0 505.4 L 819.1 506.1 L 821.1 506.5 L 823.1 506.8 L 825.1 506.7 L 827.2 506.6 L 829.2 506.3 L 831.2 506.1 L 833.3 506.0 L 835.3 505.9 L 837.3 505.8 L 839.4 505.8 L 841.4 505.7 L 843.4 505.7 L 845.5 505.7 L 847.5 505.8 L 849.5 505.8 L 851.5 505.6 L 853.6 505.4 L 855.6 505.0 L 857.6 504.5 L 859.7 503.8 L 861.7 503.2 L 863.7 502.5 L 865.8 502.0 L 867.8 501.6 L 869.8 501.3 L 871.8 501.2 L 873.9 501.2 L 875.9 501.2 L 877.9 501.1 L 880.0 501.0 L 882.0 501.0 L 884.0 501.0 L 886.0 501.3 L 888.1 502.1 L 890.1 503.4 L 892.1 505.4 L 894.2 507.9 L 896.2 510.7 L 898.2 513.6 L 900.3 516.4 L 902.3 518.9 L 904.3 520.8 L 906.3 522.0 L 908.4 522.5 L 910.4 521.7 L 912.4 519.5 L 914.5 515.6 L 916.5 509.6 L 918.5 501.9 L 920.6 493.0 L 922.6 483.6 L 924.6 475.0 L 926.7 468.7 L 928.7 465.9 L 930.7 467.7 L 932.7 474.6 L 934.8 486.7 L 936.8 502.8 L 938.8 520.7 L 940.9 537.2 L 942.9 548.9 L 944.9 553.0 L 947.0 548.1 L 949.0 534.8 L 951.0 515.8 L 953.0 495.6 L 955.1 479.2 L 957.1 470.5 L 959.1 471.1 L 961.2 480.0 L 963.2 493.7 L 965.2 507.6 L 967.2 517.7 L 969.3 521.8 L 971.3 520.3 L 973.3 515.3 L 975.4 509.9 L 977.4 506.2 L 979.4 504.7 L 981.5 504.4 L 983.5 503.9 L 985.5 502.2 L 987.5 499.5 L 989.6 497.4 L 991.6 497.4 L 993.6 500.0 L 995.7 504.4 L 997.7 508.6 L 999.7 510.7 L 1001.8 510.3 L 1003.8 508.1 L 1005.8 505.5 L 1007.8 503.9 L 1009.9 503.6 L 1011.9 504.0 L 1013.9 504.5 L 1016.0 504.9 L 1018.0 505.0" fill="none" stroke="#1f6f8b" stroke-width="1.3"/>
<text x="612.0" y="589.0" font-size="11" font-family="Arial, Microsoft YaHei, sans-serif" text-anchor="start" fill="#5f6872">0s</text>
<text x="1018.0" y="589.0" font-size="11" font-family="Arial, Microsoft YaHei, sans-serif" text-anchor="end" fill="#5f6872">200s</text>
<text x="1257.0" y="88.0" font-size="15" font-family="Arial, Microsoft YaHei, sans-serif" text-anchor="middle" fill="#20242a">BH2 / E</text>
<rect x="1054.0" y="103.0" width="406.0" height="124" fill="#f7f8fa" stroke="#d8dde3"/>
<line x1="1054.0" y1="165.0" x2="1460.0" y2="165.0" stroke="#d8dde3"/>
<path d="M 1054.0 165.4 L 1056.0 165.4 L 1058.1 165.5 L 1060.1 165.7 L 1062.1 165.8 L 1064.2 165.9 L 1066.2 166.0 L 1068.2 166.0 L 1070.2 166.1 L 1072.3 166.2 L 1074.3 166.4 L 1076.3 166.5 L 1078.4 166.5 L 1080.4 166.6 L 1082.4 166.7 L 1084.5 164.0 L 1086.5 169.2 L 1088.5 171.0 L 1090.5 165.7 L 1092.6 164.9 L 1094.6 174.6 L 1096.6 171.3 L 1098.7 164.8 L 1100.7 167.9 L 1102.7 174.3 L 1104.8 117.0 L 1106.8 122.8 L 1108.8 140.4 L 1110.8 124.4 L 1112.9 181.0 L 1114.9 179.0 L 1116.9 205.1 L 1119.0 197.3 L 1121.0 142.8 L 1123.0 123.2 L 1125.0 141.1 L 1127.1 176.1 L 1129.1 201.2 L 1131.1 206.8 L 1133.2 169.7 L 1135.2 119.6 L 1137.2 170.3 L 1139.3 174.3 L 1141.3 178.7 L 1143.3 171.8 L 1145.3 177.5 L 1147.4 140.8 L 1149.4 152.7 L 1151.4 168.3 L 1153.5 168.1 L 1155.5 174.4 L 1157.5 146.5 L 1159.6 151.3 L 1161.6 168.5 L 1163.6 178.8 L 1165.7 179.4 L 1167.7 164.4 L 1169.7 151.1 L 1171.7 163.2 L 1173.8 170.7 L 1175.8 175.3 L 1177.8 165.1 L 1179.9 168.3 L 1181.9 157.8 L 1183.9 176.4 L 1186.0 163.0 L 1188.0 159.6 L 1190.0 167.8 L 1192.0 175.5 L 1194.1 165.9 L 1196.1 163.4 L 1198.1 164.4 L 1200.2 162.5 L 1202.2 164.9 L 1204.2 164.5 L 1206.2 165.0 L 1208.3 162.1 L 1210.3 170.1 L 1212.3 167.8 L 1214.4 159.6 L 1216.4 168.8 L 1218.4 169.2 L 1220.5 165.4 L 1222.5 161.2 L 1224.5 163.3 L 1226.5 164.4 L 1228.6 164.4 L 1230.6 168.2 L 1232.6 162.1 L 1234.7 165.7 L 1236.7 162.9 L 1238.7 169.4 L 1240.8 166.1 L 1242.8 163.4 L 1244.8 170.9 L 1246.8 167.6 L 1248.9 163.0 L 1250.9 162.6 L 1252.9 164.6 L 1255.0 166.3 L 1257.0 165.5 L 1259.0 163.7 L 1261.1 168.3 L 1263.1 160.9 L 1265.1 165.3 L 1267.2 161.9 L 1269.2 164.0 L 1271.2 163.4 L 1273.2 162.9 L 1275.3 163.2 L 1277.3 170.3 L 1279.3 164.3 L 1281.4 168.8 L 1283.4 163.4 L 1285.4 165.0 L 1287.5 163.4 L 1289.5 165.0 L 1291.5 167.7 L 1293.5 167.1 L 1295.6 164.7 L 1297.6 159.5 L 1299.6 165.7 L 1301.7 169.8 L 1303.7 162.8 L 1305.7 166.3 L 1307.8 163.0 L 1309.8 165.7 L 1311.8 162.9 L 1313.8 168.7 L 1315.9 164.0 L 1317.9 164.3 L 1319.9 168.5 L 1322.0 165.3 L 1324.0 162.7 L 1326.0 164.1 L 1328.0 163.1 L 1330.1 167.4 L 1332.1 167.3 L 1334.1 165.4 L 1336.2 163.8 L 1338.2 164.3 L 1340.2 162.9 L 1342.3 165.4 L 1344.3 165.7 L 1346.3 163.0 L 1348.3 165.3 L 1350.4 164.9 L 1352.4 167.3 L 1354.4 165.3 L 1356.5 166.0 L 1358.5 164.6 L 1360.5 161.7 L 1362.6 163.8 L 1364.6 166.3 L 1366.6 167.4 L 1368.7 166.4 L 1370.7 162.5 L 1372.7 164.5 L 1374.7 166.1 L 1376.8 164.3 L 1378.8 162.9 L 1380.8 165.9 L 1382.9 166.9 L 1384.9 163.9 L 1386.9 164.8 L 1389.0 165.2 L 1391.0 164.6 L 1393.0 164.4 L 1395.0 164.5 L 1397.1 165.8 L 1399.1 164.3 L 1401.1 167.1 L 1403.2 163.6 L 1405.2 164.0 L 1407.2 167.0 L 1409.2 165.9 L 1411.3 166.2 L 1413.3 164.9 L 1415.3 163.7 L 1417.4 164.2 L 1419.4 165.0 L 1421.4 164.4 L 1423.5 165.7 L 1425.5 166.7 L 1427.5 163.0 L 1429.5 164.7 L 1431.6 165.5 L 1433.6 164.4 L 1435.6 166.3 L 1437.7 166.0 L 1439.7 163.2 L 1441.7 164.1 L 1443.8 165.6 L 1445.8 164.5 L 1447.8 164.8 L 1449.8 165.2 L 1451.9 166.1 L 1453.9 164.0 L 1455.9 166.4 L 1458.0 164.6 L 1460.0 163.4" fill="none" stroke="#a4acb5" stroke-width="0.8"/>
<path d="M 1054.0 163.2 L 1056.0 163.5 L 1058.1 163.8 L 1060.1 164.1 L 1062.1 164.4 L 1064.2 164.8 L 1066.2 165.1 L 1068.2 165.5 L 1070.2 165.8 L 1072.3 166.2 L 1074.3 166.7 L 1076.3 167.4 L 1078.4 168.5 L 1080.4 170.2 L 1082.4 172.7 L 1084.5 175.9 L 1086.5 179.6 L 1088.5 183.2 L 1090.5 185.7 L 1092.6 185.6 L 1094.6 181.8 L 1096.6 173.3 L 1098.7 160.4 L 1100.7 144.8 L 1102.7 129.8 L 1104.8 119.4 L 1106.8 117.0 L 1108.8 123.6 L 1110.8 137.6 L 1112.9 154.4 L 1114.9 169.2 L 1116.9 178.2 L 1119.0 180.8 L 1121.0 179.2 L 1123.0 176.9 L 1125.0 176.5 L 1127.1 178.4 L 1129.1 180.9 L 1131.1 182.4 L 1133.2 181.7 L 1135.2 179.4 L 1137.2 176.3 L 1139.3 173.0 L 1141.3 169.5 L 1143.3 165.5 L 1145.3 161.2 L 1147.4 157.0 L 1149.4 153.6 L 1151.4 151.8 L 1153.5 151.5 L 1155.5 152.8 L 1157.5 155.4 L 1159.6 158.9 L 1161.6 162.5 L 1163.6 165.5 L 1165.7 167.4 L 1167.7 168.1 L 1169.7 168.0 L 1171.7 167.7 L 1173.8 167.6 L 1175.8 167.5 L 1177.8 167.4 L 1179.9 167.2 L 1181.9 167.0 L 1183.9 166.8 L 1186.0 166.8 L 1188.0 166.9 L 1190.0 166.8 L 1192.0 166.4 L 1194.1 165.5 L 1196.1 164.3 L 1198.1 163.0 L 1200.2 162.0 L 1202.2 161.6 L 1204.2 161.9 L 1206.2 162.8 L 1208.3 164.0 L 1210.3 165.2 L 1212.3 166.1 L 1214.4 166.5 L 1216.4 166.3 L 1218.4 165.6 L 1220.5 164.5 L 1222.5 163.5 L 1224.5 162.7 L 1226.5 162.4 L 1228.6 162.6 L 1230.6 163.2 L 1232.6 164.1 L 1234.7 165.3 L 1236.7 166.5 L 1238.7 167.6 L 1240.8 168.3 L 1242.8 168.6 L 1244.8 168.3 L 1246.8 167.7 L 1248.9 166.8 L 1250.9 166.0 L 1252.9 165.4 L 1255.0 164.9 L 1257.0 164.4 L 1259.0 163.8 L 1261.1 163.1 L 1263.1 162.3 L 1265.1 161.6 L 1267.2 161.3 L 1269.2 161.5 L 1271.2 162.3 L 1273.2 163.5 L 1275.3 164.8 L 1277.3 166.0 L 1279.3 166.8 L 1281.4 167.2 L 1283.4 167.1 L 1285.4 166.7 L 1287.5 166.3 L 1289.5 165.9 L 1291.5 165.5 L 1293.5 165.1 L 1295.6 164.8 L 1297.6 164.6 L 1299.6 164.5 L 1301.7 164.5 L 1303.7 164.5 L 1305.7 164.6 L 1307.8 164.7 L 1309.8 164.9 L 1311.8 165.2 L 1313.8 165.4 L 1315.9 165.6 L 1317.9 165.5 L 1319.9 165.4 L 1322.0 165.2 L 1324.0 165.0 L 1326.0 164.9 L 1328.0 165.0 L 1330.1 165.1 L 1332.1 165.0 L 1334.1 164.8 L 1336.2 164.4 L 1338.2 164.0 L 1340.2 163.8 L 1342.3 163.8 L 1344.3 164.1 L 1346.3 164.6 L 1348.3 165.2 L 1350.4 165.6 L 1352.4 165.7 L 1354.4 165.6 L 1356.5 165.3 L 1358.5 165.0 L 1360.5 164.9 L 1362.6 164.9 L 1364.6 165.1 L 1366.6 165.2 L 1368.7 165.2 L 1370.7 165.1 L 1372.7 164.9 L 1374.7 164.8 L 1376.8 164.7 L 1378.8 164.7 L 1380.8 164.7 L 1382.9 164.8 L 1384.9 164.7 L 1386.9 164.6 L 1389.0 164.5 L 1391.0 164.5 L 1393.0 164.5 L 1395.0 164.6 L 1397.1 164.8 L 1399.1 165.1 L 1401.1 165.4 L 1403.2 165.7 L 1405.2 165.9 L 1407.2 165.9 L 1409.2 165.8 L 1411.3 165.5 L 1413.3 165.1 L 1415.3 164.7 L 1417.4 164.4 L 1419.4 164.3 L 1421.4 164.4 L 1423.5 164.5 L 1425.5 164.7 L 1427.5 164.9 L 1429.5 165.0 L 1431.6 165.1 L 1433.6 165.1 L 1435.6 165.0 L 1437.7 164.9 L 1439.7 164.8 L 1441.7 164.7 L 1443.8 164.7 L 1445.8 164.8 L 1447.8 165.0 L 1449.8 165.1 L 1451.9 165.1 L 1453.9 165.1 L 1455.9 165.0 L 1458.0 165.0 L 1460.0 164.9" fill="none" stroke="#1f6f8b" stroke-width="1.3"/>
<rect x="1054.0" y="273.0" width="406.0" height="124" fill="#f7f8fa" stroke="#d8dde3"/>
<line x1="1054.0" y1="335.0" x2="1460.0" y2="335.0" stroke="#d8dde3"/>
<path d="M 1054.0 333.2 L 1056.0 333.0 L 1058.1 332.8 L 1060.1 332.7 L 1062.1 332.8 L 1064.2 333.1 L 1066.2 333.2 L 1068.2 333.0 L 1070.2 333.0 L 1072.3 333.1 L 1074.3 333.6 L 1076.3 333.8 L 1078.4 333.6 L 1080.4 333.5 L 1082.4 333.9 L 1084.5 334.3 L 1086.5 334.7 L 1088.5 334.9 L 1090.5 334.8 L 1092.6 334.7 L 1094.6 334.9 L 1096.6 335.4 L 1098.7 335.7 L 1100.7 335.6 L 1102.7 335.6 L 1104.8 335.9 L 1106.8 336.3 L 1108.8 336.4 L 1110.8 336.2 L 1112.9 336.1 L 1114.9 335.9 L 1116.9 335.8 L 1119.0 336.1 L 1121.0 336.6 L 1123.0 336.6 L 1125.0 336.4 L 1127.1 336.3 L 1129.1 336.7 L 1131.1 336.8 L 1133.2 336.5 L 1135.2 336.5 L 1137.2 336.9 L 1139.3 337.2 L 1141.3 337.2 L 1143.3 336.8 L 1145.3 336.5 L 1147.4 336.5 L 1149.4 336.7 L 1151.4 336.9 L 1153.5 336.9 L 1155.5 336.6 L 1157.5 335.7 L 1159.6 334.8 L 1161.6 334.2 L 1163.6 334.4 L 1165.7 334.4 L 1167.7 334.2 L 1169.7 334.6 L 1171.7 333.8 L 1173.8 333.1 L 1175.8 332.0 L 1177.8 335.1 L 1179.9 334.2 L 1181.9 333.7 L 1183.9 335.3 L 1186.0 334.2 L 1188.0 333.2 L 1190.0 335.4 L 1192.0 334.7 L 1194.1 335.5 L 1196.1 334.4 L 1198.1 335.6 L 1200.2 336.1 L 1202.2 335.3 L 1204.2 335.5 L 1206.2 335.7 L 1208.3 334.1 L 1210.3 337.4 L 1212.3 335.6 L 1214.4 336.5 L 1216.4 337.2 L 1218.4 336.1 L 1220.5 335.0 L 1222.5 334.1 L 1224.5 335.8 L 1226.5 334.1 L 1228.6 337.3 L 1230.6 338.0 L 1232.6 336.1 L 1234.7 333.4 L 1236.7 333.1 L 1238.7 335.0 L 1240.8 331.9 L 1242.8 333.9 L 1244.8 330.1 L 1246.8 332.4 L 1248.9 324.8 L 1250.9 331.6 L 1252.9 321.8 L 1255.0 334.9 L 1257.0 317.5 L 1259.0 318.1 L 1261.1 333.3 L 1263.1 341.4 L 1265.1 347.1 L 1267.2 327.0 L 1269.2 350.0 L 1271.2 340.9 L 1273.2 367.1 L 1275.3 337.8 L 1277.3 354.6 L 1279.3 360.3 L 1281.4 326.2 L 1283.4 319.6 L 1285.4 308.8 L 1287.5 317.7 L 1289.5 302.5 L 1291.5 321.0 L 1293.5 331.5 L 1295.6 364.8 L 1297.6 383.0 L 1299.6 369.9 L 1301.7 339.6 L 1303.7 323.7 L 1305.7 298.1 L 1307.8 314.5 L 1309.8 343.3 L 1311.8 366.0 L 1313.8 343.6 L 1315.9 312.9 L 1317.9 308.9 L 1319.9 329.4 L 1322.0 366.5 L 1324.0 363.2 L 1326.0 334.3 L 1328.0 317.0 L 1330.1 317.6 L 1332.1 335.3 L 1334.1 346.9 L 1336.2 345.0 L 1338.2 330.2 L 1340.2 324.7 L 1342.3 322.4 L 1344.3 328.9 L 1346.3 341.4 L 1348.3 343.3 L 1350.4 328.6 L 1352.4 324.6 L 1354.4 332.8 L 1356.5 337.3 L 1358.5 339.4 L 1360.5 327.6 L 1362.6 329.3 L 1364.6 334.1 L 1366.6 331.6 L 1368.7 339.9 L 1370.7 337.2 L 1372.7 328.5 L 1374.7 334.1 L 1376.8 343.1 L 1378.8 335.6 L 1380.8 330.0 L 1382.9 334.1 L 1384.9 329.4 L 1386.9 343.4 L 1389.0 344.1 L 1391.0 335.9 L 1393.0 336.0 L 1395.0 337.0 L 1397.1 334.8 L 1399.1 337.0 L 1401.1 337.5 L 1403.2 335.1 L 1405.2 335.0 L 1407.2 336.4 L 1409.2 341.5 L 1411.3 339.1 L 1413.3 333.6 L 1415.3 330.8 L 1417.4 340.4 L 1419.4 336.2 L 1421.4 336.8 L 1423.5 336.8 L 1425.5 333.6 L 1427.5 336.9 L 1429.5 333.3 L 1431.6 337.6 L 1433.6 336.2 L 1435.6 336.3 L 1437.7 332.4 L 1439.7 328.8 L 1441.7 334.6 L 1443.8 336.8 L 1445.8 335.8 L 1447.8 336.8 L 1449.8 334.1 L 1451.9 331.7 L 1453.9 333.6 L 1455.9 337.1 L 1458.0 335.6 L 1460.0 328.6" fill="none" stroke="#a4acb5" stroke-width="0.8"/>
<path d="M 1054.0 334.8 L 1056.0 333.8 L 1058.1 333.1 L 1060.1 332.6 L 1062.1 332.4 L 1064.2 332.4 L 1066.2 332.6 L 1068.2 332.9 L 1070.2 333.2 L 1072.3 333.5 L 1074.3 333.8 L 1076.3 334.0 L 1078.4 334.3 L 1080.4 334.6 L 1082.4 334.8 L 1084.5 335.1 L 1086.5 335.3 L 1088.5 335.5 L 1090.5 335.6 L 1092.6 335.7 L 1094.6 335.8 L 1096.6 335.8 L 1098.7 335.9 L 1100.7 336.0 L 1102.7 336.0 L 1104.8 336.0 L 1106.8 335.8 L 1108.8 335.6 L 1110.8 335.3 L 1112.9 335.0 L 1114.9 334.7 L 1116.9 334.6 L 1119.0 334.5 L 1121.0 334.5 L 1123.0 334.6 L 1125.0 334.7 L 1127.1 334.8 L 1129.1 335.0 L 1131.1 335.2 L 1133.2 335.5 L 1135.2 335.8 L 1137.2 336.2 L 1139.3 336.5 L 1141.3 336.8 L 1143.3 337.1 L 1145.3 337.4 L 1147.4 337.5 L 1149.4 337.6 L 1151.4 337.5 L 1153.5 337.1 L 1155.5 336.4 L 1157.5 335.6 L 1159.6 334.7 L 1161.6 333.8 L 1163.6 333.1 L 1165.7 332.4 L 1167.7 331.9 L 1169.7 331.6 L 1171.7 331.4 L 1173.8 331.4 L 1175.8 331.6 L 1177.8 332.0 L 1179.9 332.4 L 1181.9 332.9 L 1183.9 333.3 L 1186.0 333.7 L 1188.0 334.1 L 1190.0 334.4 L 1192.0 334.8 L 1194.1 335.1 L 1196.1 335.5 L 1198.1 335.8 L 1200.2 336.0 L 1202.2 336.3 L 1204.2 336.6 L 1206.2 337.0 L 1208.3 337.4 L 1210.3 337.8 L 1212.3 338.2 L 1214.4 338.4 L 1216.4 338.5 L 1218.4 338.6 L 1220.5 338.8 L 1222.5 339.1 L 1224.5 339.8 L 1226.5 340.5 L 1228.6 341.2 L 1230.6 341.5 L 1232.6 341.3 L 1234.7 340.5 L 1236.7 339.1 L 1238.7 337.1 L 1240.8 334.4 L 1242.8 331.0 L 1244.8 326.8 L 1246.8 322.1 L 1248.9 317.1 L 1250.9 312.6 L 1252.9 309.5 L 1255.0 308.5 L 1257.0 310.6 L 1259.0 316.3 L 1261.1 325.2 L 1263.1 336.7 L 1265.1 349.4 L 1267.2 362.0 L 1269.2 372.5 L 1271.2 379.0 L 1273.2 379.7 L 1275.3 373.1 L 1277.3 359.3 L 1279.3 339.8 L 1281.4 318.2 L 1283.4 299.2 L 1285.4 287.7 L 1287.5 287.0 L 1289.5 297.6 L 1291.5 316.9 L 1293.5 339.4 L 1295.6 358.5 L 1297.6 368.9 L 1299.6 368.7 L 1301.7 359.4 L 1303.7 345.6 L 1305.7 332.4 L 1307.8 323.4 L 1309.8 319.6 L 1311.8 320.2 L 1313.8 323.6 L 1315.9 328.8 L 1317.9 334.6 L 1319.9 340.2 L 1322.0 344.1 L 1324.0 345.5 L 1326.0 344.3 L 1328.0 341.4 L 1330.1 338.2 L 1332.1 335.6 L 1334.1 333.7 L 1336.2 332.2 L 1338.2 330.9 L 1340.2 330.1 L 1342.3 330.0 L 1344.3 330.7 L 1346.3 331.9 L 1348.3 333.1 L 1350.4 333.9 L 1352.4 334.2 L 1354.4 334.1 L 1356.5 333.8 L 1358.5 333.4 L 1360.5 333.1 L 1362.6 333.2 L 1364.6 333.7 L 1366.6 334.4 L 1368.7 335.1 L 1370.7 335.7 L 1372.7 335.8 L 1374.7 335.6 L 1376.8 335.2 L 1378.8 335.0 L 1380.8 335.1 L 1382.9 335.8 L 1384.9 336.9 L 1386.9 338.2 L 1389.0 339.0 L 1391.0 339.1 L 1393.0 338.4 L 1395.0 337.3 L 1397.1 336.1 L 1399.1 335.1 L 1401.1 334.6 L 1403.2 334.6 L 1405.2 334.8 L 1407.2 335.1 L 1409.2 335.3 L 1411.3 335.3 L 1413.3 335.1 L 1415.3 334.9 L 1417.4 334.8 L 1419.4 334.8 L 1421.4 334.9 L 1423.5 334.9 L 1425.5 334.8 L 1427.5 334.7 L 1429.5 334.3 L 1431.6 333.8 L 1433.6 333.3 L 1435.6 332.8 L 1437.7 332.7 L 1439.7 333.1 L 1441.7 334.0 L 1443.8 335.0 L 1445.8 336.0 L 1447.8 336.5 L 1449.8 336.6 L 1451.9 336.3 L 1453.9 335.8 L 1455.9 335.4 L 1458.0 335.2 L 1460.0 335.1" fill="none" stroke="#1f6f8b" stroke-width="1.3"/>
<rect x="1054.0" y="443.0" width="406.0" height="124" fill="#f7f8fa" stroke="#d8dde3"/>
<line x1="1054.0" y1="505.0" x2="1460.0" y2="505.0" stroke="#d8dde3"/>
<path d="M 1054.0 505.1 L 1056.0 505.3 L 1058.1 505.3 L 1060.1 505.3 L 1062.1 505.2 L 1064.2 504.9 L 1066.2 504.7 L 1068.2 504.8 L 1070.2 505.1 L 1072.3 505.4 L 1074.3 505.6 L 1076.3 505.6 L 1078.4 505.5 L 1080.4 505.0 L 1082.4 504.6 L 1084.5 504.6 L 1086.5 505.1 L 1088.5 505.7 L 1090.5 505.8 L 1092.6 505.4 L 1094.6 505.1 L 1096.6 505.0 L 1098.7 505.0 L 1100.7 505.1 L 1102.7 505.3 L 1104.8 505.5 L 1106.8 505.6 L 1108.8 505.2 L 1110.8 505.0 L 1112.9 505.2 L 1114.9 505.4 L 1116.9 505.3 L 1119.0 505.1 L 1121.0 505.2 L 1123.0 505.2 L 1125.0 505.1 L 1127.1 505.1 L 1129.1 505.3 L 1131.1 505.3 L 1133.2 505.1 L 1135.2 505.0 L 1137.2 504.9 L 1139.3 505.0 L 1141.3 505.0 L 1143.3 505.1 L 1145.3 505.2 L 1147.4 505.2 L 1149.4 505.1 L 1151.4 504.8 L 1153.5 504.6 L 1155.5 504.5 L 1157.5 504.7 L 1159.6 505.0 L 1161.6 505.1 L 1163.6 504.8 L 1165.7 504.7 L 1167.7 505.1 L 1169.7 505.2 L 1171.7 505.0 L 1173.8 504.7 L 1175.8 504.5 L 1177.8 504.6 L 1179.9 504.9 L 1181.9 505.4 L 1183.9 505.6 L 1186.0 505.4 L 1188.0 504.8 L 1190.0 504.4 L 1192.0 504.6 L 1194.1 505.0 L 1196.1 505.4 L 1198.1 505.5 L 1200.2 505.4 L 1202.2 505.4 L 1204.2 505.2 L 1206.2 505.2 L 1208.3 505.3 L 1210.3 505.3 L 1212.3 505.2 L 1214.4 505.2 L 1216.4 505.3 L 1218.4 505.5 L 1220.5 505.7 L 1222.5 505.5 L 1224.5 505.4 L 1226.5 505.2 L 1228.6 505.0 L 1230.6 505.2 L 1232.6 505.0 L 1234.7 505.6 L 1236.7 506.3 L 1238.7 505.4 L 1240.8 507.3 L 1242.8 504.3 L 1244.8 504.7 L 1246.8 506.2 L 1248.9 503.5 L 1250.9 506.2 L 1252.9 505.7 L 1255.0 505.6 L 1257.0 506.6 L 1259.0 504.1 L 1261.1 504.2 L 1263.1 504.1 L 1265.1 504.8 L 1267.2 505.2 L 1269.2 505.7 L 1271.2 504.7 L 1273.2 504.1 L 1275.3 504.4 L 1277.3 505.1 L 1279.3 505.8 L 1281.4 505.5 L 1283.4 503.8 L 1285.4 504.0 L 1287.5 503.5 L 1289.5 504.3 L 1291.5 504.8 L 1293.5 503.5 L 1295.6 503.2 L 1297.6 504.4 L 1299.6 504.5 L 1301.7 503.8 L 1303.7 505.6 L 1305.7 503.5 L 1307.8 504.0 L 1309.8 504.3 L 1311.8 504.4 L 1313.8 503.6 L 1315.9 503.8 L 1317.9 503.1 L 1319.9 504.8 L 1322.0 504.4 L 1324.0 504.2 L 1326.0 505.3 L 1328.0 504.7 L 1330.1 507.3 L 1332.1 506.4 L 1334.1 506.7 L 1336.2 508.9 L 1338.2 507.9 L 1340.2 509.4 L 1342.3 511.7 L 1344.3 512.1 L 1346.3 514.5 L 1348.3 510.0 L 1350.4 511.5 L 1352.4 512.1 L 1354.4 514.3 L 1356.5 507.2 L 1358.5 500.9 L 1360.5 497.2 L 1362.6 509.0 L 1364.6 502.3 L 1366.6 478.2 L 1368.7 482.6 L 1370.7 502.6 L 1372.7 493.1 L 1374.7 472.8 L 1376.8 482.4 L 1378.8 489.1 L 1380.8 525.5 L 1382.9 524.5 L 1384.9 514.0 L 1386.9 520.8 L 1389.0 553.0 L 1391.0 534.4 L 1393.0 496.6 L 1395.0 498.3 L 1397.1 486.5 L 1399.1 472.4 L 1401.1 474.8 L 1403.2 488.8 L 1405.2 497.5 L 1407.2 538.3 L 1409.2 531.7 L 1411.3 533.0 L 1413.3 501.0 L 1415.3 496.5 L 1417.4 485.0 L 1419.4 472.2 L 1421.4 488.1 L 1423.5 519.7 L 1425.5 535.5 L 1427.5 523.3 L 1429.5 527.4 L 1431.6 491.8 L 1433.6 483.0 L 1435.6 482.1 L 1437.7 497.4 L 1439.7 523.8 L 1441.7 525.5 L 1443.8 520.4 L 1445.8 496.9 L 1447.8 482.0 L 1449.8 495.9 L 1451.9 509.2 L 1453.9 519.5 L 1455.9 516.9 L 1458.0 502.8 L 1460.0 491.5" fill="none" stroke="#a4acb5" stroke-width="0.8"/>
<path d="M 1054.0 505.1 L 1056.0 505.1 L 1058.1 505.1 L 1060.1 505.0 L 1062.1 504.9 L 1064.2 504.9 L 1066.2 504.8 L 1068.2 504.9 L 1070.2 505.0 L 1072.3 505.1 L 1074.3 505.1 L 1076.3 505.1 L 1078.4 505.0 L 1080.4 504.9 L 1082.4 504.9 L 1084.5 504.8 L 1086.5 504.9 L 1088.5 504.9 L 1090.5 505.0 L 1092.6 505.0 L 1094.6 505.0 L 1096.6 505.0 L 1098.7 505.0 L 1100.7 505.0 L 1102.7 505.0 L 1104.8 505.1 L 1106.8 505.1 L 1108.8 505.1 L 1110.8 505.1 L 1112.9 505.1 L 1114.9 505.1 L 1116.9 505.0 L 1119.0 505.0 L 1121.0 505.0 L 1123.0 505.0 L 1125.0 505.1 L 1127.1 505.1 L 1129.1 505.1 L 1131.1 505.1 L 1133.2 505.1 L 1135.2 505.1 L 1137.2 505.1 L 1139.3 505.1 L 1141.3 505.1 L 1143.3 505.1 L 1145.3 505.1 L 1147.4 505.0 L 1149.4 504.9 L 1151.4 504.8 L 1153.5 504.8 L 1155.5 504.7 L 1157.5 504.8 L 1159.6 504.8 L 1161.6 504.9 L 1163.6 505.0 L 1165.7 505.1 L 1167.7 505.1 L 1169.7 505.0 L 1171.7 505.0 L 1173.8 504.9 L 1175.8 504.9 L 1177.8 504.9 L 1179.9 505.0 L 1181.9 505.0 L 1183.9 505.0 L 1186.0 504.9 L 1188.0 504.9 L 1190.0 504.8 L 1192.0 504.8 L 1194.1 504.9 L 1196.1 505.0 L 1198.1 505.1 L 1200.2 505.2 L 1202.2 505.2 L 1204.2 505.1 L 1206.2 505.1 L 1208.3 505.0 L 1210.3 504.9 L 1212.3 504.9 L 1214.4 504.9 L 1216.4 504.9 L 1218.4 504.9 L 1220.5 504.8 L 1222.5 504.7 L 1224.5 504.7 L 1226.5 504.6 L 1228.6 504.7 L 1230.6 504.8 L 1232.6 505.0 L 1234.7 505.2 L 1236.7 505.4 L 1238.7 505.4 L 1240.8 505.4 L 1242.8 505.3 L 1244.8 505.2 L 1246.8 505.2 L 1248.9 505.3 L 1250.9 505.3 L 1252.9 505.4 L 1255.0 505.4 L 1257.0 505.2 L 1259.0 505.1 L 1261.1 504.9 L 1263.1 504.9 L 1265.1 504.9 L 1267.2 505.1 L 1269.2 505.4 L 1271.2 505.6 L 1273.2 505.8 L 1275.3 506.0 L 1277.3 506.1 L 1279.3 506.0 L 1281.4 505.8 L 1283.4 505.5 L 1285.4 505.2 L 1287.5 504.8 L 1289.5 504.6 L 1291.5 504.4 L 1293.5 504.3 L 1295.6 504.4 L 1297.6 504.4 L 1299.6 504.4 L 1301.7 504.4 L 1303.7 504.2 L 1305.7 503.8 L 1307.8 503.4 L 1309.8 502.8 L 1311.8 502.2 L 1313.8 501.6 L 1315.9 501.1 L 1317.9 500.7 L 1319.9 500.6 L 1322.0 500.6 L 1324.0 500.9 L 1326.0 501.5 L 1328.0 502.3 L 1330.1 503.4 L 1332.1 504.9 L 1334.1 506.7 L 1336.2 508.9 L 1338.2 511.5 L 1340.2 514.2 L 1342.3 517.0 L 1344.3 519.4 L 1346.3 521.3 L 1348.3 522.3 L 1350.4 522.2 L 1352.4 520.7 L 1354.4 517.7 L 1356.5 513.1 L 1358.5 507.0 L 1360.5 499.6 L 1362.6 491.2 L 1364.6 482.6 L 1366.6 474.7 L 1368.7 468.6 L 1370.7 465.8 L 1372.7 467.4 L 1374.7 474.4 L 1376.8 486.8 L 1378.8 503.3 L 1380.8 521.5 L 1382.9 538.0 L 1384.9 549.4 L 1386.9 553.0 L 1389.0 547.6 L 1391.0 534.2 L 1393.0 515.8 L 1395.0 496.9 L 1397.1 482.1 L 1399.1 475.1 L 1401.1 477.0 L 1403.2 486.2 L 1405.2 498.9 L 1407.2 510.4 L 1409.2 516.7 L 1411.3 516.5 L 1413.3 511.0 L 1415.3 503.5 L 1417.4 497.8 L 1419.4 496.5 L 1421.4 499.6 L 1423.5 505.2 L 1425.5 510.2 L 1427.5 512.3 L 1429.5 510.9 L 1431.6 507.2 L 1433.6 503.4 L 1435.6 501.6 L 1437.7 502.0 L 1439.7 503.9 L 1441.7 505.7 L 1443.8 506.5 L 1445.8 506.1 L 1447.8 505.2 L 1449.8 504.5 L 1451.9 504.4 L 1453.9 504.6 L 1455.9 504.8 L 1458.0 505.0 L 1460.0 505.0" fill="none" stroke="#1f6f8b" stroke-width="1.3"/>
<text x="1054.0" y="589.0" font-size="11" font-family="Arial, Microsoft YaHei, sans-serif" text-anchor="start" fill="#5f6872">0s</text>
<text x="1460.0" y="589.0" font-size="11" font-family="Arial, Microsoft YaHei, sans-serif" text-anchor="end" fill="#5f6872">200s</text>
</svg>